<svg xmlns="http://www.w3.org/2000/svg" viewBox="0 0 120 120"><rect width="120" height="120" rx="60" fill="#f3dfd0"/><circle cx="60" cy="49" r="25" fill="#efb084"/><path d="M31 51c-2-24 12-39 30-39 20 0 33 15 29 42-7-4-13-11-18-21-10 11-22 17-41 18Z" fill="#6b3b2a"/><circle cx="51" cy="52" r="2.4"/><circle cx="69" cy="52" r="2.4"/><path d="M53 63c5 4 10 4 15 0" fill="none" stroke="#9a5f50" stroke-width="2.4" stroke-linecap="round"/><path d="M23 120c3-28 17-42 37-42s35 14 38 42" fill="#b7d4e6"/><path d="M45 79l15 15 15-15" fill="#fff"/></svg>
